# xmcd CD database file
#
# Track frame offsets:
#	150
#	11077
#	24321
#	38058
#	54340
#	66329
#	82134
#	94354
#	104716
#	117276
#	135870
#	152063
#	164581
#
# Disc length: 2394 seconds
#
# Revision: 0
# Processed by: cddbd v1.5.2PL0 Copyright (c) Steve Scherf et al.
# Submitted via: CDex 1.70beta2
#
DISCID=ab09580d
DTITLE=Albert Saxby - Hillbilly Savant
DYEAR=1900
DGENRE=Country
TTITLE0=Diesel
TTITLE1=Highway Run
TTITLE2=Ton Of Stone
TTITLE3=Over My Head
TTITLE4=Road From The City
TTITLE5=Piercings
TTITLE6=Light One Up
TTITLE7=Flat Top Guitar
TTITLE8=Woodpecker
TTITLE9=One Mile
TTITLE10=Highway Of Dreams
TTITLE11=Sweet Whiskey
TTITLE12=World's A Better Place
EXTD=
EXTT0=
EXTT1=
EXTT2=
EXTT3=
EXTT4=
EXTT5=
EXTT6=
EXTT7=
EXTT8=
EXTT9=
EXTT10=
EXTT11=
EXTT12=
PLAYORDER=
